<?xml version="1.0" encoding="utf-8"?>
<!-- Generator: Adobe Illustrator 16.0.0, SVG Export Plug-In . SVG Version: 6.00 Build 0)  -->
<!DOCTYPE svg PUBLIC "-//W3C//DTD SVG 1.1//EN" "http://www.w3.org/Graphics/SVG/1.1/DTD/svg11.dtd">
<svg version="1.1" id="图层_1" xmlns="http://www.w3.org/2000/svg" xmlns:xlink="http://www.w3.org/1999/xlink" x="0px" y="0px"
	 width="595.281px" height="841.89px" viewBox="0 0 595.281 841.89" enable-background="new 0 0 595.281 841.89"
	 xml:space="preserve">
<path fill="#FFFFFF" d="M298.279,132.606c-162.806,0-288.978,118.986-288.978,279.7c0,84.06,34.542,156.703,90.769,206.882
	c9.708,8.732,7.708,13.789,9.359,67.703c0.44,12.783,11.16,22.789,23.943,22.35c2.92-0.102,5.794-0.754,8.472-1.922
	c61.516-27.09,62.307-29.23,72.736-26.393c178.224,49.053,371.4-65.004,371.4-268.621
	C585.98,251.592,461.097,132.606,298.279,132.606z M471.794,347.849l-84.873,134.368c-12.854,20.264-39.701,26.271-59.963,13.418
	c-0.93-0.59-1.836-1.215-2.717-1.871l-67.527-50.541c-6.201-4.65-14.727-4.65-20.928,0l-91.117,69.107
	c-12.162,9.221-28.09-5.348-19.893-18.219l84.874-134.368c12.844-20.261,39.682-26.274,59.943-13.43
	c0.936,0.593,1.848,1.222,2.736,1.885l67.504,50.529c6.201,4.651,14.727,4.651,20.928,0l91.164-69.039
	C464.062,320.41,479.992,334.967,471.794,347.849L471.794,347.849z"/>
</svg>
