<?xml version="1.0" encoding="utf-8"?>
<!-- Generator: Adobe Illustrator 16.0.0, SVG Export Plug-In . SVG Version: 6.00 Build 0)  -->
<!DOCTYPE svg PUBLIC "-//W3C//DTD SVG 1.1//EN" "http://www.w3.org/Graphics/SVG/1.1/DTD/svg11.dtd">
<svg version="1.1" id="图层_1" xmlns="http://www.w3.org/2000/svg" xmlns:xlink="http://www.w3.org/1999/xlink" x="0px" y="0px"
	 width="595.281px" height="841.89px" viewBox="0 0 595.281 841.89" enable-background="new 0 0 595.281 841.89"
	 xml:space="preserve">
<path fill="#FFFFFF" d="M199.107,590.648c0,2.4-2.76,4.32-6.241,4.32c-3.961,0.359-6.721-1.561-6.721-4.32
	c0-2.4,2.76-4.32,6.241-4.32C195.986,585.968,199.107,587.888,199.107,590.648z M161.782,585.248c-0.84,2.4,1.56,5.16,5.161,5.881
	c3.121,1.199,6.721,0,7.441-2.4c0.72-2.4-1.56-5.16-5.161-6.242C166.103,581.646,162.622,582.847,161.782,585.248L161.782,585.248z
	 M214.829,583.207c-3.48,0.84-5.881,3.121-5.521,5.881c0.36,2.4,3.48,3.961,7.081,3.121c3.48-0.84,5.881-3.121,5.521-5.521
	C221.55,584.408,218.31,582.847,214.829,583.207z M293.8,123.305C127.337,123.305,0,249.682,0,416.145
	c0,133.097,83.771,246.994,203.427,287.078c15.362,2.762,20.763-6.721,20.763-14.521c0-7.441-0.36-48.486-0.36-73.689
	c0,0-84.011,18.002-101.654-35.766c0,0-13.682-34.924-33.364-43.926c0,0-27.484-18.842,1.92-18.482c0,0,29.884,2.4,46.326,30.965
	c26.283,46.326,70.329,33.004,87.492,25.084c2.76-19.203,10.562-32.525,19.203-40.445C176.664,525,108.975,515.277,108.975,399.822
	c0-33.004,9.121-49.567,28.324-70.689c-3.12-7.801-13.322-39.965,3.121-81.491c25.083-7.801,82.811,32.404,82.811,32.404
	c24.003-6.721,49.807-10.201,75.371-10.201c25.563,0,51.365,3.48,75.369,10.201c0,0,57.729-40.325,82.811-32.404
	c16.443,41.646,6.242,73.69,3.121,81.491c19.203,21.243,30.965,37.805,30.965,70.689c0,115.816-70.689,125.056-137.779,132.619
	c11.041,9.48,20.402,27.482,20.402,55.688c0,40.445-0.359,90.492-0.359,100.332c0,7.801,5.521,17.283,20.764,14.523
	c120.016-39.846,201.387-153.742,201.387-286.839C595.281,249.682,460.261,123.305,293.8,123.305z M116.656,537.242
	c-1.56,1.199-1.2,3.959,0.84,6.24c1.92,1.92,4.681,2.76,6.241,1.199c1.56-1.199,1.2-3.959-0.84-6.24
	C120.976,536.521,118.216,535.681,116.656,537.242z M103.694,527.519c-0.84,1.561,0.36,3.48,2.76,4.682
	c1.92,1.199,4.321,0.84,5.161-0.84c0.84-1.561-0.36-3.48-2.761-4.682C106.454,525.958,104.534,526.32,103.694,527.519z
	 M142.579,570.246c-1.92,1.561-1.2,5.16,1.561,7.441c2.76,2.76,6.241,3.119,7.801,1.199c1.56-1.561,0.84-5.16-1.56-7.441
	C147.74,568.685,144.14,568.326,142.579,570.246z M128.897,552.603c-1.92,1.199-1.92,4.32,0,7.08
	c1.92,2.762,5.161,3.961,6.721,2.762c1.92-1.561,1.92-4.682,0-7.441C133.938,552.244,130.817,551.042,128.897,552.603
	L128.897,552.603z"/>
</svg>
