<?xml version="1.0" encoding="utf-8"?>
<!-- Generator: Adobe Illustrator 16.0.0, SVG Export Plug-In . SVG Version: 6.00 Build 0)  -->
<!DOCTYPE svg PUBLIC "-//W3C//DTD SVG 1.1//EN" "http://www.w3.org/Graphics/SVG/1.1/DTD/svg11.dtd">
<svg version="1.1" id="图层_1" xmlns="http://www.w3.org/2000/svg" xmlns:xlink="http://www.w3.org/1999/xlink" x="0px" y="0px"
	 width="595.281px" height="841.89px" viewBox="0 0 595.281 841.89" enable-background="new 0 0 595.281 841.89"
	 xml:space="preserve">
<path fill="#FFFFFF" d="M552.761,123.305H42.387C19.001,123.305,0,142.572,0,166.224v509.444c0,23.65,19.001,42.918,42.387,42.918
	h510.374c23.385,0,42.52-19.268,42.52-42.918V166.224C595.281,142.572,576.146,123.305,552.761,123.305z M179.913,633.544H91.684
	V349.458h88.362v284.086H179.913z M135.798,310.659c-28.302,0-51.157-22.987-51.157-51.157s22.854-51.157,51.157-51.157
	c28.169,0,51.157,22.988,51.157,51.157C186.955,287.804,164.101,310.659,135.798,310.659z M510.638,633.544H422.41V495.355
	c0-32.953-0.664-75.34-45.842-75.34c-45.975,0-53.018,35.877-53.018,72.949v140.58h-88.229V349.458h84.641v38.799h1.197
	c11.826-22.323,40.658-45.842,83.578-45.842c89.291,0,105.9,58.863,105.9,135.4V633.544z"/>
</svg>
